<svg width="36" height="25" viewBox="0 0 36 25" fill="none" xmlns="http://www.w3.org/2000/svg">
<path d="M18.2075 0C11.2349 0 5.57129 5.58932 5.57129 12.5C5.57129 19.3975 11.2215 25 18.2075 25C25.1801 25 30.8436 19.4107 30.8436 12.5C30.8436 5.58932 25.1801 0 18.2075 0ZM19.7436 21.0227C19.3829 21.3795 18.8753 21.5645 18.2208 21.5645C17.5529 21.5645 17.032 21.3927 16.6714 21.0359C16.3107 20.6924 16.1237 20.1903 16.1237 19.556C16.1237 18.8953 16.2973 18.3932 16.658 18.0629C17.0186 17.7193 17.5396 17.5608 18.2208 17.5608C18.8753 17.5608 19.3963 17.7326 19.7569 18.0761C20.1176 18.4197 20.3046 18.9218 20.3046 19.556C20.2912 20.1771 20.1176 20.666 19.7436 21.0227ZM19.7703 15.5259H16.6981L15.6295 6.0518C15.5493 4.94186 16.7381 4.01691 18.2342 4.01691C19.7302 4.01691 20.919 4.94186 20.8389 6.0518L19.7703 15.5259Z" fill="#FF0000" fill-opacity="0.6"/>
<path d="M4.88888 2.81477C4.42137 2.51086 3.80693 2.64299 3.49971 3.10547C1.66974 5.89352 0.708008 9.14405 0.708008 12.5003C0.708008 15.8565 1.66974 19.107 3.49971 21.8951C3.68671 22.1858 4.00729 22.3444 4.34122 22.3444C4.52823 22.3444 4.71524 22.2915 4.88888 22.1858C5.35639 21.8819 5.48997 21.2741 5.18275 20.8116C3.5665 18.3407 2.71162 15.4733 2.71162 12.5003C2.71162 9.52724 3.5665 6.64669 5.18275 4.18898C5.48997 3.7265 5.35639 3.10547 4.88888 2.81477Z" fill="#FF0000" fill-opacity="0.6"/>
<path d="M31.5277 2.81477C31.0601 3.11868 30.9266 3.7265 31.2338 4.18898C32.8501 6.65991 33.705 9.52724 33.705 12.5003C33.705 15.4733 32.8501 18.3539 31.2338 20.8116C30.9266 21.2741 31.0601 21.8819 31.5277 22.1858C31.7013 22.2915 31.8883 22.3444 32.0753 22.3444C32.4093 22.3444 32.7298 22.1858 32.9169 21.8951C34.7469 19.107 35.7086 15.8565 35.7086 12.5003C35.7086 9.14405 34.7469 5.89352 32.9169 3.10547C32.6096 2.64299 31.9952 2.51086 31.5277 2.81477Z" fill="#FF0000" fill-opacity="0.6"/>
</svg>
