<svg width="80" height="80" viewBox="0 0 80 80" fill="none" xmlns="http://www.w3.org/2000/svg">
<circle cx="40" cy="40" r="40" fill="white"/>
<path d="M44.134 35.0571V58.4772H35.4501V35.0571H44.134ZM39.792 22.119C41.1955 22.119 42.3504 22.5722 43.2568 23.4786C44.1925 24.3558 44.6603 25.4522 44.6603 26.768C44.6603 28.0837 44.1925 29.1948 43.2568 30.1012C42.3504 30.9783 41.1955 31.4169 39.792 31.4169C38.3886 31.4169 37.2191 30.9783 36.2834 30.1012C35.377 29.1948 34.9238 28.0837 34.9238 26.768C34.9238 25.4522 35.377 24.3558 36.2834 23.4786C37.2191 22.5722 38.3886 22.119 39.792 22.119Z" fill="#465D72"/>
<rect x="3.24902" y="51.1675" width="25.1777" height="25.1777" fill="white"/>
</svg>
