<svg width="26" height="25" viewBox="0 0 26 25" fill="none" xmlns="http://www.w3.org/2000/svg">
<path d="M12.708 0C5.79733 0 0.208008 5.58932 0.208008 12.5C0.208008 19.3975 5.79733 25 12.708 25C19.6187 25 25.208 19.4107 25.208 12.5C25.1948 5.58932 19.6055 0 12.708 0ZM14.2276 21.0227C13.8708 21.3795 13.3687 21.5645 12.7212 21.5645C12.0605 21.5645 11.5452 21.3927 11.1884 21.0359C10.8317 20.6924 10.6467 20.1903 10.6467 19.556C10.6467 18.8953 10.8185 18.3932 11.1752 18.0629C11.532 17.7193 12.0473 17.5608 12.7212 17.5608C13.3687 17.5608 13.884 17.7326 14.2408 18.0761C14.5975 18.4197 14.7825 18.9218 14.7825 19.556C14.7693 20.1771 14.5843 20.666 14.2276 21.0227ZM14.2408 15.5259H11.2017L10.1446 6.0518C10.0653 4.94186 11.2413 4.01691 12.7212 4.01691C14.2011 4.01691 15.3771 4.94186 15.2979 6.0518L14.2408 15.5259Z" fill="#E6AA30" fill-opacity="0.95"/>
</svg>
