<svg width="59" height="20" viewBox="0 0 59 20" fill="none" xmlns="http://www.w3.org/2000/svg">
<path d="M15.0861 17.3608H0.00976562V19.9999H15.0861V17.3608Z" fill="white"/>
<path d="M16.7305 4.47067H20.5709V16.4451H16.7305V4.47067Z" fill="white"/>
<path d="M21.7036 4.47067H26.5879L28.2521 11.1176L29.9163 4.47067H34.84V16.4451H31.6593V8.64596L29.7194 16.4451H26.8144L24.8843 8.64596V16.4451H21.7036V4.47067Z" fill="white"/>
<path d="M35.9922 4.47067H45.7706V7.26733H39.8327V8.8429H45.3275V11.5115H39.8327V13.5302H45.9282V16.4549H35.9922V4.47067Z" fill="white"/>
<path d="M46.9131 16.4451V4.47067H53.0775C54.1706 4.47067 54.9978 4.56915 55.5788 4.75625C56.1598 4.95319 56.6521 5.43571 57.0066 5.94778C57.3611 6.46969 57.499 7.13931 57.499 7.87786C57.499 8.52779 57.3611 9.07924 57.0953 9.55191C56.8294 10.0246 56.4552 10.3988 55.9825 10.6942C55.6772 10.8813 55.5591 11.029 55.0372 11.157C55.4606 11.3047 55.5886 11.5608 55.7856 11.7085C55.9136 11.807 56.1007 12.0138 56.3469 12.3289C56.593 12.644 56.7604 12.8902 56.8392 13.0576L58.5625 16.4451H54.2297L52.339 12.8705C52.1026 12.4076 51.9451 12.1122 51.758 11.9645C51.502 11.7873 51.3936 11.6888 51.0687 11.6888H50.7536V16.4352H46.9131V16.4451ZM50.7536 9.16787H52.0633C52.2208 9.16787 52.4178 9.14817 52.8806 9.0497C53.1169 9.00046 53.304 8.96107 53.4517 8.76412C53.5601 8.64595 53.6684 8.51794 53.6782 8.2816C53.6782 7.9074 53.5601 7.61198 53.3237 7.41504C53.0874 7.21809 52.7723 7.10977 52.1322 7.10977H50.7634V9.16787H50.7536Z" fill="white"/>
<path d="M16.7407 19.5175L17.0558 18.0108H17.371L17.0558 19.5175H16.7407Z" fill="white"/>
<path d="M18.7101 19.5175H18.4245L18.0208 18.5032L17.8041 19.5175H17.5186L17.8337 18.0108H18.1192L18.5328 19.0153L18.7396 18.0108H19.0252L18.7101 19.5175Z" fill="white"/>
<path d="M19.2418 19.0251L19.5372 19.0054C19.5372 19.094 19.5569 19.163 19.5864 19.1925C19.6357 19.2418 19.7144 19.2713 19.8326 19.2713C19.9311 19.2713 20.0099 19.2516 20.0492 19.2122C20.0985 19.1728 20.1182 19.1334 20.1182 19.0842C20.1182 19.035 20.0985 19.0054 20.0591 18.9759C20.0296 18.9562 19.9606 18.9168 19.8425 18.8676C19.7243 18.8183 19.6357 18.7789 19.5864 18.7395C19.5372 18.71 19.4879 18.6608 19.4584 18.6115C19.4289 18.5623 19.4092 18.4934 19.4092 18.4244C19.4092 18.2964 19.4584 18.1881 19.547 18.1093C19.6357 18.0305 19.7735 17.9813 19.9409 17.9813C20.1182 17.9813 20.256 18.0207 20.3545 18.1093C20.453 18.1881 20.5022 18.3063 20.5121 18.4441L20.2167 18.454C20.2068 18.385 20.1871 18.326 20.1379 18.2866C20.0886 18.2472 20.0296 18.2275 19.9409 18.2275C19.8523 18.2275 19.7932 18.2472 19.7538 18.2767C19.7144 18.3063 19.6947 18.3456 19.6947 18.3949C19.6947 18.4343 19.7144 18.4737 19.744 18.5032C19.7735 18.5327 19.8523 18.5721 19.9705 18.6214C20.1477 18.7002 20.256 18.7592 20.3053 18.7986C20.3742 18.8676 20.4136 18.9562 20.4136 19.0645C20.4136 19.1925 20.3644 19.3107 20.256 19.3993C20.1477 19.4978 20.0099 19.5372 19.8228 19.5372C19.6947 19.5372 19.5864 19.5175 19.488 19.4682C19.3895 19.4289 19.3304 19.3698 19.291 19.291C19.2516 19.2122 19.2319 19.1334 19.2418 19.0251Z" fill="white"/>
<path d="M21.4181 19.5175H21.103L21.3689 18.2669H20.9258L20.975 18.0207H22.1567L22.1075 18.2669H21.6742L21.4181 19.5175Z" fill="white"/>
<path d="M22.1958 19.5175L22.5109 18.0108H22.826L22.5109 19.5175H22.1958Z" fill="white"/>
<path d="M23.614 19.5175H23.2988L23.5647 18.2669H23.1216L23.1708 18.0207H24.3525L24.3033 18.2669H23.87L23.614 19.5175Z" fill="white"/>
<path d="M24.7367 18.0108H25.042L24.8648 18.8282L24.8254 19.0251C24.8254 19.0448 24.8155 19.0645 24.8155 19.094C24.8155 19.1531 24.8352 19.1925 24.8845 19.2319C24.9337 19.2713 25.0026 19.2811 25.0912 19.2811C25.17 19.2811 25.239 19.2713 25.2882 19.2418C25.3374 19.2122 25.3867 19.1728 25.4064 19.1137C25.4359 19.0547 25.4654 18.966 25.495 18.8282L25.6624 18.0108H25.9775L25.8003 18.8676C25.7609 19.035 25.7215 19.163 25.6722 19.2516C25.623 19.3402 25.5541 19.4092 25.4458 19.4682C25.3473 19.5273 25.2193 19.547 25.0716 19.547C24.8943 19.547 24.7466 19.5076 24.658 19.419C24.5595 19.3304 24.5103 19.2221 24.5103 19.0842C24.5103 19.0547 24.5103 19.0251 24.5201 18.9956C24.5201 18.9759 24.5299 18.9069 24.5595 18.8085L24.7367 18.0108Z" fill="white"/>
<path d="M26.7453 19.5175H26.4302L26.6961 18.2669H26.2529L26.3022 18.0207H27.4839L27.4346 18.2669H27.0013L26.7453 19.5175Z" fill="white"/>
<path d="M28.0452 18.454C28.1437 18.3161 28.2618 18.2472 28.4095 18.2472C28.508 18.2472 28.5868 18.2767 28.6557 18.3456C28.7148 18.4146 28.7542 18.5032 28.7542 18.6214C28.7542 18.7297 28.7246 18.838 28.6754 18.9463C28.6262 19.0547 28.5572 19.1433 28.4883 19.1925C28.4095 19.2516 28.3308 19.2713 28.252 19.2713C28.1535 19.2713 28.0649 19.2319 28.0058 19.163C27.9467 19.094 27.9073 19.0054 27.9073 18.9069C27.9073 18.7494 27.9566 18.5918 28.0452 18.454ZM27.6611 19.2122C27.7005 19.3107 27.7695 19.3895 27.8581 19.4485C27.9566 19.5076 28.0747 19.547 28.2126 19.547C28.3701 19.547 28.5179 19.5076 28.6459 19.4289C28.7739 19.3501 28.8724 19.2319 28.9511 19.0842C29.0299 18.9365 29.0595 18.7789 29.0595 18.6214C29.0595 18.4343 29.0004 18.2767 28.8921 18.1585C28.7739 18.0404 28.6262 17.9813 28.4391 17.9813C28.3012 17.9813 28.1732 18.0108 28.0649 18.0699C27.9566 18.129 27.8679 18.2078 27.799 18.2964C27.7301 18.3949 27.671 18.5032 27.6414 18.6411C27.6119 18.7395 27.6021 18.8282 27.6021 18.9266C27.6021 19.0153 27.6217 19.1137 27.6611 19.2122Z" fill="white"/>
<path d="M30.9208 19.5175H30.6253L30.5663 18.2669L30.3299 19.5175H30.0542L30.3693 18.0108H30.8124L30.8617 19.0448L31.3344 18.0108H31.7775L31.5018 19.5175H31.226L31.4919 18.2669L30.9208 19.5175Z" fill="white"/>
<path d="M31.9746 19.5175L32.2897 18.0108H33.4025L33.3532 18.257H32.5458L32.467 18.6017H33.2449L33.1957 18.8479H32.4079L32.3193 19.2615H33.1957L33.1366 19.5076H31.9746V19.5175Z" fill="white"/>
<path d="M33.7866 19.5175H33.3828L34.0426 18.7592L33.6684 18.0108H33.9934L34.1411 18.2866C34.1411 18.2964 34.1805 18.3653 34.2395 18.4934C34.2395 18.5032 34.2494 18.5131 34.2494 18.5229C34.3282 18.4244 34.3971 18.3456 34.4562 18.2767L34.6925 18.0108H35.0864L34.3971 18.7986L34.7713 19.5076H34.4266L34.3085 19.291C34.2494 19.1728 34.21 19.094 34.1903 19.0448C34.1608 19.0842 34.1017 19.163 33.9934 19.2811L33.7866 19.5175Z" fill="white"/>
<path d="M35.0962 19.5175L35.4113 18.0108H35.7263L35.4113 19.5175H35.0962Z" fill="white"/>
<path d="M36.9471 18.9759L37.2622 19.0252C37.2031 19.1926 37.1145 19.3206 36.9864 19.4092C36.8683 19.4978 36.7206 19.5471 36.563 19.5471C36.3759 19.5471 36.238 19.488 36.1297 19.3797C36.0313 19.2713 35.9722 19.1039 35.9722 18.8971C35.9722 18.7297 36.0116 18.5722 36.0805 18.4245C36.1494 18.2866 36.2479 18.1783 36.3661 18.0995C36.4842 18.0207 36.6221 17.9912 36.7698 17.9912C36.9372 17.9912 37.0652 18.0306 37.1637 18.1192C37.2622 18.2078 37.3213 18.326 37.341 18.4737L37.0455 18.5032C37.0258 18.4146 36.9963 18.3555 36.9471 18.3161C36.8978 18.2768 36.8387 18.2571 36.76 18.2571C36.6713 18.2571 36.5926 18.2866 36.5236 18.3358C36.4448 18.3851 36.3858 18.4737 36.3464 18.582C36.2971 18.6903 36.2774 18.7987 36.2774 18.9168C36.2774 19.035 36.307 19.1335 36.3661 19.1926C36.4251 19.2615 36.4941 19.291 36.5827 19.291C36.6615 19.291 36.7403 19.2615 36.7993 19.2123C36.8584 19.1532 36.9077 19.0744 36.9471 18.9759Z" fill="white"/>
<path d="M38.0598 18.9266L38.3946 18.326L38.4833 18.9266H38.0598ZM38.5719 19.5175H38.8673L38.631 18.0108H38.2863L37.4395 19.5175H37.7546L37.9417 19.1827H38.5325L38.5719 19.5175Z" fill="white"/>
<path d="M40.4235 19.5175H40.1379L39.7341 18.5032L39.5175 19.5175H39.2319L39.547 18.0108H39.8326L40.2462 19.0153L40.453 18.0108H40.7386L40.4235 19.5175Z" fill="white"/>
<path d="M41.4475 18.454C41.546 18.3161 41.6642 18.2472 41.8119 18.2472C41.9104 18.2472 41.9891 18.2767 42.0581 18.3456C42.1171 18.4146 42.1565 18.5032 42.1565 18.6214C42.1565 18.7297 42.127 18.838 42.0778 18.9463C42.0285 19.0547 41.9596 19.1433 41.8907 19.1925C41.8119 19.2516 41.7331 19.2713 41.6543 19.2713C41.5558 19.2713 41.4672 19.2319 41.4081 19.163C41.349 19.094 41.3097 19.0054 41.3097 18.9069C41.3097 18.7494 41.3589 18.5918 41.4475 18.454ZM41.0635 19.2122C41.1029 19.3107 41.1718 19.3895 41.2604 19.4485C41.3589 19.5076 41.4771 19.547 41.6149 19.547C41.7725 19.547 41.9202 19.5076 42.0482 19.4289C42.1762 19.3501 42.2747 19.2319 42.3535 19.0842C42.4323 18.9365 42.4618 18.7789 42.4618 18.6214C42.4618 18.4343 42.4027 18.2767 42.2944 18.1585C42.1762 18.0404 42.0285 17.9813 41.8414 17.9813C41.7036 17.9813 41.5755 18.0108 41.4672 18.0699C41.3589 18.129 41.2703 18.2078 41.2013 18.2964C41.1324 18.3949 41.0733 18.5032 41.0438 18.6411C41.0142 18.7395 41.0044 18.8282 41.0044 18.9266C41.0044 19.0153 41.0241 19.1137 41.0635 19.2122Z" fill="white"/>
<path d="M44.0376 18.257H44.2149C44.3035 18.257 44.3724 18.2669 44.402 18.2767C44.4512 18.2964 44.4906 18.326 44.53 18.385C44.5595 18.4343 44.5792 18.5229 44.5792 18.6214C44.5792 18.7494 44.5595 18.8577 44.5201 18.9463C44.4808 19.035 44.4315 19.1137 44.3626 19.163C44.3232 19.2024 44.274 19.2319 44.2247 19.2418C44.1755 19.2516 44.0967 19.2615 43.9785 19.2615H43.821L44.0376 18.257ZM43.9884 19.5175C44.1262 19.5175 44.2247 19.5076 44.2838 19.4978C44.402 19.4682 44.4906 19.4289 44.5595 19.3698C44.658 19.3008 44.7269 19.1925 44.7959 19.0744C44.855 18.9463 44.8845 18.8085 44.8845 18.6411C44.8845 18.5623 44.8746 18.4934 44.8648 18.4343C44.8451 18.3752 44.8254 18.3161 44.7959 18.2669C44.7663 18.2176 44.7368 18.1782 44.6875 18.1389C44.6482 18.0995 44.5989 18.0798 44.5497 18.0601C44.5004 18.0404 44.4414 18.0305 44.3823 18.0207C44.3527 18.0207 44.274 18.0108 44.1656 18.0108H43.7619L43.4468 19.5175H43.9884Z" fill="white"/>
<path d="M45.1401 19.5175L45.4553 18.0108H46.568L46.5188 18.257H45.7113L45.6325 18.6017H46.4104L46.3612 18.8479H45.5734L45.4848 19.2615H46.3612L46.3021 19.5076H45.1401V19.5175Z" fill="white"/>
<path d="M47.4644 19.5175L47.7795 18.0108H48.0946L47.8287 19.2615H48.5968L48.5476 19.5076H47.4644V19.5175Z" fill="white"/>
<path d="M49.4339 18.9266L49.7688 18.326L49.8574 18.9266H49.4339ZM49.9362 19.5175H50.2316L49.9952 18.0108H49.6506L48.8037 19.5175H49.1188L49.3059 19.1827H49.8968L49.9362 19.5175Z" fill="white"/>
<path d="M51.8366 18.257H52.1714C52.26 18.257 52.3191 18.2668 52.3487 18.2865C52.3881 18.3161 52.4176 18.3554 52.4176 18.4145C52.4176 18.4638 52.3979 18.5032 52.3684 18.5524C52.3388 18.5918 52.2994 18.6213 52.2404 18.6509C52.1813 18.6706 52.073 18.6804 51.9055 18.6804H51.7381L51.8366 18.257ZM51.7086 18.8872H51.8366C51.9055 18.8872 51.9646 18.8971 51.9942 18.9167C52.0434 18.9463 52.0828 19.0152 52.132 19.1137C52.2108 19.2909 52.26 19.4288 52.2896 19.5076H52.6244C52.5358 19.2909 52.4668 19.1235 52.3979 19.0054C52.3585 18.9463 52.329 18.8971 52.2896 18.8675C52.4471 18.8478 52.5555 18.7986 52.6342 18.71C52.713 18.6312 52.7524 18.5229 52.7524 18.3948C52.7524 18.3062 52.7327 18.2274 52.6933 18.1683C52.6539 18.1093 52.6047 18.06 52.5358 18.0403C52.4767 18.0206 52.3782 18.0009 52.2699 18.0009H51.6003L51.2852 19.5076H51.6003L51.7086 18.8872Z" fill="white"/>
<path d="M53.471 18.9266L53.8059 18.326L53.8945 18.9266H53.471ZM53.9733 19.5175H54.2687L54.0323 18.0108H53.6877L52.8408 19.5175H53.1559L53.343 19.1827H53.9339L53.9733 19.5175Z" fill="white"/>
<path d="M55.2045 18.257H55.3818C55.4704 18.257 55.5393 18.2669 55.5689 18.2767C55.6181 18.2964 55.6575 18.326 55.6969 18.385C55.7264 18.4343 55.7461 18.5229 55.7461 18.6214C55.7461 18.7494 55.7264 18.8577 55.687 18.9463C55.6477 19.035 55.5984 19.1137 55.5295 19.163C55.4901 19.2024 55.4409 19.2319 55.3916 19.2418C55.3424 19.2516 55.2636 19.2615 55.1454 19.2615H54.9879L55.2045 18.257ZM55.1651 19.5175C55.303 19.5175 55.4015 19.5076 55.4606 19.4978C55.5787 19.4682 55.6674 19.4289 55.7363 19.3698C55.8348 19.3008 55.9037 19.1925 55.9726 19.0744C56.0317 18.9463 56.0612 18.8085 56.0612 18.6411C56.0612 18.5623 56.0514 18.4934 56.0416 18.4343C56.0219 18.3752 56.0022 18.3161 55.9726 18.2669C55.9431 18.2176 55.9135 18.1782 55.8643 18.1389C55.8249 18.0995 55.7757 18.0798 55.7264 18.0601C55.6772 18.0404 55.6181 18.0305 55.559 18.0207C55.5295 18.0207 55.4507 18.0108 55.3424 18.0108H54.9387L54.6235 19.5175H55.1651Z" fill="white"/>
<path d="M56.2974 19.5175L56.6125 18.0108H56.9276L56.6125 19.5175H56.2974Z" fill="white"/>
<path d="M57.6072 18.454C57.7057 18.3161 57.8238 18.2472 57.9715 18.2472C58.07 18.2472 58.1488 18.2767 58.2177 18.3456C58.2768 18.4146 58.3162 18.5032 58.3162 18.6214C58.3162 18.7297 58.2867 18.838 58.2374 18.9463C58.1882 19.0547 58.1193 19.1433 58.0503 19.1925C57.9715 19.2516 57.8928 19.2713 57.814 19.2713C57.7155 19.2713 57.6269 19.2319 57.5678 19.163C57.5087 19.094 57.4693 19.0054 57.4693 18.9069C57.4693 18.7494 57.5186 18.5918 57.6072 18.454ZM57.2232 19.2122C57.2625 19.3107 57.3315 19.3895 57.4201 19.4485C57.5186 19.5076 57.6367 19.547 57.7746 19.547C57.9322 19.547 58.0799 19.5076 58.2079 19.4289C58.3359 19.3501 58.4344 19.2319 58.5132 19.0842C58.5919 18.9365 58.6215 18.7789 58.6215 18.6214C58.6215 18.4343 58.5624 18.2767 58.4541 18.1585C58.3359 18.0404 58.1882 17.9813 58.0011 17.9813C57.8632 17.9813 57.7352 18.0108 57.6269 18.0699C57.5186 18.129 57.4299 18.2078 57.361 18.2964C57.2921 18.3949 57.233 18.5032 57.2035 18.6411C57.1739 18.7395 57.1641 18.8282 57.1641 18.9266C57.1641 19.0153 57.1838 19.1137 57.2232 19.2122Z" fill="white"/>
<path d="M15.0862 7.36583C14.9877 3.27917 11.6494 0 7.54308 0C3.37765 0 0 3.37765 0 7.54308C0 7.62186 0 7.70064 0 7.77942V16.4549H4.89414V13.8159C2.47169 12.7819 0.768094 10.3791 0.768094 7.57262C0.768094 3.83062 3.81093 0.787789 7.55293 0.787789C11.3048 0.787789 14.3378 3.83062 14.3378 7.57262C14.3378 10.3791 12.6342 12.7917 10.192 13.8257V16.4549H15.0862V7.36583Z" fill="white"/>
<path d="M7.56254 1.92023C4.44093 1.92023 1.91016 4.451 1.91016 7.57261C1.91016 10.6942 4.44093 13.225 7.56254 13.225C10.6842 13.225 13.2149 10.6942 13.2149 7.57261C13.2248 4.451 10.694 1.92023 7.56254 1.92023ZM7.56254 11.3442C5.48475 11.3442 3.791 9.66025 3.791 7.57261C3.791 5.49482 5.4749 3.80107 7.56254 3.80107C9.64034 3.80107 11.3341 5.48497 11.3341 7.57261C11.3341 9.65041 9.65019 11.3442 7.56254 11.3442Z" fill="white"/>
<path d="M7.56292 4.9335C6.10551 4.9335 4.92383 6.11518 4.92383 7.57259C4.92383 9.03 6.10551 10.2117 7.56292 10.2117C9.02033 10.2117 10.202 9.03 10.202 7.57259C10.2119 6.11518 9.03018 4.9335 7.56292 4.9335ZM7.56292 9.32543C6.58803 9.32543 5.80024 8.53764 5.80024 7.56275C5.80024 6.58786 6.58803 5.80007 7.56292 5.80007C8.53781 5.80007 9.3256 6.58786 9.3256 7.56275C9.3256 8.53764 8.53781 9.32543 7.56292 9.32543Z" fill="white"/>
</svg>
