<svg width="273" height="49" viewBox="0 0 273 49" fill="none" xmlns="http://www.w3.org/2000/svg">
<path d="M14.7341 3.67212H14.6357L13.1605 6.62644L8.93144 14.4061L4.70241 6.62644L3.22716 3.67212H3.12881V18.7391H1.06348V0.816284H3.91561L9.02979 10.4671H9.12814L14.2423 0.816284H16.9961V18.6407H14.9308V3.67212H14.7341Z" fill="white"/>
<path d="M32.7314 18.6407L30.9611 13.3229H23.7816L22.0114 18.6407H19.8477L26.0437 0.816284H28.7974L34.9935 18.6407H32.7314ZM27.4206 2.78583H27.3222L24.2734 11.4518H30.4694L27.4206 2.78583Z" fill="white"/>
<path d="M37.9443 18.6407V0.816284H45.0255C46.5991 0.816284 47.8776 1.30867 48.7628 2.19496C49.6479 3.08126 50.0413 4.36146 50.0413 5.9371C50.0413 7.51273 49.6479 8.79294 48.7628 9.67923C47.8776 10.5655 46.6974 11.0579 45.0255 11.0579H40.108V18.6407H37.9443ZM40.108 9.18684H45.0255C45.9106 9.18684 46.5007 8.98989 46.9925 8.4975C47.4842 8.00512 47.6809 7.41426 47.6809 6.62644V5.24776C47.6809 4.45994 47.4842 3.7706 46.9925 3.37669C46.5007 2.8843 45.9106 2.68735 45.0255 2.68735H40.108V9.18684Z" fill="white"/>
<path d="M63.5156 18.6407L61.7453 13.3229H54.5658L52.7955 18.6407H50.6318L56.8278 0.816284H59.5816L65.7776 18.6407H63.5156ZM58.1064 2.78583H58.008L54.9592 11.4518H61.1552L58.1064 2.78583Z" fill="white"/>
<path d="M73.9404 18.6407V16.8681H76.3992V2.58887H73.9404V0.816284H81.1199V2.58887H78.6612V16.8681H81.1199V18.6407H73.9404Z" fill="white"/>
<path d="M89.2834 7.80817L87.1197 3.86908H87.0214V18.7391H84.9561V0.816284H87.4148L93.9059 11.7473L96.0696 15.6863H96.1679V0.816284H98.2333V18.6407H95.7745L89.2834 7.80817Z" fill="white"/>
<path d="M109.051 2.68735V18.6407H106.887V2.68735H101.183V0.816284H114.657V2.68735H109.051Z" fill="white"/>
<path d="M117.705 18.6407V0.816284H128.622V2.68735H119.869V8.69446H128.13V10.5655H119.869V16.7696H128.622V18.6407H117.705Z" fill="white"/>
<path d="M134.72 18.6407H132.557V0.816284H139.638C141.211 0.816284 142.392 1.21019 143.277 2.09649C144.162 2.98278 144.555 4.26298 144.555 5.83862C144.555 7.11882 144.26 8.20207 143.67 9.08837C143.08 9.97466 142.195 10.467 141.015 10.7625L145.145 18.6407H142.687L138.851 10.9594H134.72V18.6407ZM139.638 9.18684C140.523 9.18684 141.113 8.98989 141.605 8.4975C142.097 8.00512 142.293 7.41426 142.293 6.62644V5.24776C142.293 4.45994 142.097 3.7706 141.605 3.37669C141.113 2.8843 140.523 2.68735 139.638 2.68735H134.72V9.18684H139.638Z" fill="white"/>
<path d="M160.095 18.6407L158.324 13.3229H151.145L149.375 18.6407H147.211L153.407 0.816284H156.161L162.357 18.6407H160.095ZM154.784 2.78583H154.686L151.637 11.4518H157.833L154.784 2.78583Z" fill="white"/>
<path d="M171.208 19.0345C168.946 19.0345 167.176 18.2467 165.897 16.6711C164.618 15.0954 164.028 12.8305 164.028 9.87615C164.028 6.82335 164.618 4.55838 165.897 2.98274C167.176 1.40711 168.946 0.520813 171.208 0.520813C172.683 0.520813 173.962 0.816245 174.945 1.50558C175.929 2.19492 176.715 3.1797 177.306 4.36142L175.535 5.44467C175.142 4.55838 174.65 3.77056 173.863 3.27817C173.175 2.68731 172.191 2.49036 171.11 2.49036C170.323 2.49036 169.634 2.58883 169.044 2.88426C168.454 3.1797 167.962 3.57361 167.471 4.16447C167.077 4.65686 166.684 5.3462 166.487 6.13401C166.29 6.92183 166.192 7.70965 166.192 8.59594V11.2548C166.192 13.1259 166.585 14.5046 167.471 15.5878C168.356 16.6711 169.536 17.1635 171.11 17.1635C172.29 17.1635 173.175 16.868 173.962 16.2772C174.748 15.6863 175.339 14.8985 175.634 13.9137L177.306 14.997C176.715 16.2772 175.929 17.2619 174.847 17.9513C174.06 18.6406 172.781 19.0345 171.208 19.0345Z" fill="white"/>
<path d="M186.845 2.68735V18.6407H184.682V2.68735H178.978V0.816284H192.451V2.68735H186.845Z" fill="white"/>
<path d="M194.419 18.6407V16.8681H196.878V2.58887H194.419V0.816284H201.598V2.58887H199.14V16.8681H201.598V18.6407H194.419Z" fill="white"/>
<path d="M209.564 18.6407L203.663 0.816284H205.925L208.876 9.87619L210.843 16.5726H210.941L213.006 9.87619L215.957 0.816284H218.219L212.22 18.6407H209.564Z" fill="white"/>
<path d="M227.465 19.0345C226.285 19.0345 225.301 18.8376 224.318 18.4437C223.432 18.0498 222.547 17.4589 221.957 16.6711C221.367 15.8833 220.777 14.8985 220.482 13.8152C220.089 12.6335 219.99 11.3533 219.99 9.87615C219.99 8.39899 220.187 7.02031 220.482 5.93706C220.875 4.75534 221.367 3.86904 221.957 3.08122C222.646 2.29341 223.432 1.70255 224.318 1.30864C225.203 0.914728 226.285 0.717773 227.465 0.717773C228.645 0.717773 229.628 0.914728 230.612 1.30864C231.595 1.70255 232.382 2.29341 232.972 3.08122C233.661 3.86904 234.153 4.85381 234.448 5.93706C234.841 7.11879 234.939 8.39899 234.939 9.87615C234.939 11.3533 234.743 12.732 234.448 13.8152C234.054 14.997 233.562 15.8833 232.972 16.6711C232.382 17.4589 231.497 18.0498 230.612 18.4437C229.628 18.8376 228.547 19.0345 227.465 19.0345ZM227.465 17.065C228.252 17.065 228.94 16.9665 229.628 16.6711C230.317 16.3756 230.809 15.9817 231.3 15.4893C231.792 14.997 232.087 14.4061 232.382 13.6183C232.677 12.8305 232.776 12.1411 232.776 11.1564V8.20204C232.776 7.31574 232.677 6.52793 232.382 5.74011C232.087 5.05077 231.792 4.36143 231.3 3.86904C230.809 3.37666 230.317 2.98275 229.628 2.68732C228.94 2.39189 228.252 2.29341 227.465 2.29341C226.678 2.29341 225.99 2.39189 225.301 2.68732C224.613 2.98275 224.121 3.37666 223.629 3.86904C223.137 4.36143 222.842 4.95229 222.547 5.74011C222.252 6.42945 222.154 7.21727 222.154 8.20204V11.1564C222.154 12.0426 222.252 12.8305 222.547 13.6183C222.842 14.3076 223.137 14.997 223.629 15.4893C224.121 15.9817 224.613 16.3756 225.301 16.6711C225.99 16.9665 226.678 17.065 227.465 17.065Z" fill="white"/>
<path d="M244.872 0.816284H250.871C251.953 0.816284 252.937 1.01324 253.92 1.40715C254.805 1.80105 255.592 2.29344 256.281 3.08126C256.969 3.86908 257.362 4.75537 257.756 5.83862C258.051 6.92187 258.248 8.30055 258.248 9.77771C258.248 11.2549 258.051 12.5351 257.756 13.7168C257.461 14.8985 256.969 15.7848 256.281 16.4742C255.69 17.262 254.904 17.7544 253.92 18.1483C253.035 18.5422 252.052 18.7391 250.871 18.7391H244.872V0.816284ZM250.871 16.7696C251.56 16.7696 252.248 16.6711 252.937 16.3757C253.625 16.0803 254.117 15.7848 254.51 15.2924C255.002 14.8 255.297 14.2092 255.592 13.5198C255.887 12.8305 255.986 12.0427 255.986 11.1564V8.20208C255.986 7.31578 255.887 6.52796 255.592 5.83862C255.297 5.14928 255.002 4.55842 254.51 4.06603C254.019 3.57365 253.527 3.17974 252.937 2.98278C252.347 2.68735 251.658 2.58887 250.871 2.58887H247.036V16.6711H250.871V16.7696Z" fill="white"/>
<path d="M262.083 18.6407V0.816284H273V2.68735H264.247V8.69446H272.508V10.5655H264.247V16.7696H273V18.6407H262.083Z" fill="white"/>
<path d="M0.375 48.1838V30.3594H4.30898V44.7371H11.0951V48.1838H0.375Z" fill="white"/>
<path d="M13.9473 48.1838V30.3594H26.0443V33.8061H17.7829V37.4497H24.8641V40.8964H17.7829V44.7371H26.0443V48.1838H13.9473Z" fill="white"/>
<path d="M34.8956 39.8132L33.2236 36.268H33.1253V48.2822H29.4863V30.3594H33.7154L38.6329 38.8284L40.3048 42.3736H40.4031V30.3594H44.0421V48.1837H39.813L34.8956 39.8132Z" fill="white"/>
<path d="M59.2855 45.4264H59.1871C59.0888 46.3127 58.597 47.1005 57.8102 47.6914C57.0234 48.2822 55.9416 48.5777 54.5647 48.5777C53.5812 48.5777 52.5977 48.3807 51.7126 47.9868C50.8274 47.5929 50.0406 47.002 49.3522 46.2142C48.6637 45.4264 48.172 44.4416 47.7786 43.3584C47.3852 42.1767 47.1885 40.8965 47.1885 39.4193C47.1885 37.9421 47.3852 36.5635 47.7786 35.3817C48.172 34.2 48.7621 33.2152 49.4505 32.4274C50.139 31.6396 51.0241 31.0487 52.0076 30.6548C52.9911 30.2609 54.0729 30.064 55.3515 30.064C56.9251 30.064 58.302 30.4579 59.4822 31.1472C60.6624 31.8366 61.5475 32.9198 62.236 34.2985L59.0888 36.0711C58.7937 35.3817 58.4003 34.7909 57.8102 34.2985C57.2201 33.8061 56.4333 33.6091 55.3515 33.6091C54.1713 33.6091 53.1878 34.003 52.4994 34.6924C51.8109 35.3817 51.4175 36.465 51.4175 38.0406V40.8965C51.4175 42.3736 51.8109 43.4569 52.4994 44.1462C53.1878 44.8355 54.1713 45.2295 55.3515 45.2295C55.8432 45.2295 56.2366 45.131 56.7284 45.0325C57.1218 44.934 57.5152 44.7371 57.8102 44.5401C58.1053 44.3432 58.4003 44.0477 58.597 43.7523C58.7937 43.4569 58.8921 43.063 58.8921 42.5706V41.6843H55.5482V38.4345H62.531V48.3807H59.2855V45.4264Z" fill="white"/>
<path d="M70.1045 30.3594V41.2903C70.1045 42.5705 70.3995 43.4568 70.8913 44.1462C71.383 44.737 72.1698 45.0325 73.35 45.0325C74.5302 45.0325 75.317 44.737 75.8088 44.1462C76.3005 43.5553 76.5956 42.5705 76.5956 41.2903V30.3594H80.3329V40.8964C80.3329 42.1766 80.2345 43.3584 79.9395 44.3431C79.6444 45.3279 79.251 46.1157 78.7593 46.7066C78.2675 47.2974 77.4807 47.7898 76.5956 48.0853C75.7104 48.3807 74.6286 48.5776 73.35 48.5776C72.0715 48.5776 70.9896 48.3807 70.1045 48.0853C69.2193 47.7898 68.5309 47.2974 67.9408 46.7066C67.3507 46.1157 66.9573 45.3279 66.7606 44.3431C66.4655 43.3584 66.3672 42.2751 66.3672 40.8964V30.3594H70.1045Z" fill="white"/>
<path d="M94.4953 48.1838L93.2168 43.9492H87.2174L85.9389 48.1838H82.0049L87.9059 30.3594H92.725L98.5276 48.1838H94.4953ZM90.2663 33.9046H90.1679L88.2009 40.6995H92.3316L90.2663 33.9046Z" fill="white"/>
<path d="M106.789 48.5776C105.215 48.5776 103.937 48.2822 102.757 47.7898C101.675 47.2974 100.691 46.5096 100.003 45.7218L102.56 43.1614C103.74 44.5401 105.215 45.2294 106.986 45.2294C107.969 45.2294 108.658 45.0325 109.149 44.6386C109.641 44.2446 109.838 43.7523 109.838 43.0629C109.838 42.5705 109.74 42.1766 109.445 41.8812C109.149 41.5858 108.658 41.2903 107.773 41.1919L106.002 40.9949C104.134 40.798 102.757 40.2071 101.872 39.3208C100.986 38.4345 100.593 37.2528 100.593 35.6771C100.593 34.8893 100.79 34.1015 101.085 33.5106C101.38 32.8213 101.872 32.2304 102.363 31.8365C102.855 31.4426 103.642 30.9502 104.429 30.7533C105.215 30.5563 106.199 30.3594 107.281 30.3594C108.658 30.3594 109.838 30.5563 110.821 31.0487C111.805 31.4426 112.69 32.132 113.477 32.9198L110.92 35.5787C110.526 35.0863 109.936 34.6924 109.346 34.3969C108.756 34.1015 107.969 33.9046 107.084 33.9046C106.199 33.9046 105.609 34.1015 105.117 34.3969C104.625 34.6924 104.527 35.0863 104.527 35.6771C104.527 36.268 104.724 36.7604 105.019 36.9573C105.314 37.2528 105.904 37.4497 106.691 37.5482L108.461 37.8436C110.33 38.1391 111.707 38.7299 112.592 39.5177C113.477 40.404 113.969 41.5858 113.969 43.1614C113.969 44.0477 113.772 44.8355 113.477 45.5249C113.182 46.2142 112.69 46.9035 112.1 47.3959C111.51 47.8883 110.821 48.2822 109.936 48.5776C108.854 48.3807 107.871 48.5776 106.789 48.5776Z" fill="white"/>
<path d="M122.329 48.1838V45.131H124.591V33.4122H122.329V30.3594H130.787V33.4122H128.525V45.131H130.787V48.1838H122.329Z" fill="white"/>
<path d="M139.441 39.8132L137.77 36.268H137.671V48.2822H134.032V30.3594H138.261L143.179 38.8284L144.851 42.3736H144.949V30.3594H148.588V48.1837H144.359L139.441 39.8132Z" fill="white"/>
<path d="M152.521 30.3594H159.209C160.389 30.3594 161.471 30.5563 162.455 30.9502C163.438 31.3441 164.225 31.8365 164.913 32.6243C165.602 33.4122 166.094 34.2985 166.487 35.3817C166.88 36.465 167.077 37.8436 167.077 39.3208C167.077 40.798 166.88 42.0782 166.487 43.2599C166.094 44.3431 165.602 45.3279 164.913 46.0172C164.225 46.7066 163.438 47.2974 162.455 47.6914C161.471 48.0853 160.389 48.2822 159.209 48.2822H152.521V30.3594ZM159.308 44.737C160.488 44.737 161.373 44.4416 162.061 43.7523C162.75 43.0629 163.045 42.0782 163.045 40.601V37.8436C163.045 36.3665 162.75 35.3817 162.061 34.6924C161.373 34.003 160.488 33.7076 159.308 33.7076H156.455V44.6386H159.308V44.737Z" fill="white"/>
<path d="M169.635 48.1838V45.131H171.897V33.4122H169.635V30.3594H178.093V33.4122H175.831V45.131H178.093V48.1838H169.635Z" fill="white"/>
<path d="M192.747 45.4264H192.649C192.551 46.3127 192.059 47.1005 191.272 47.6914C190.485 48.2822 189.404 48.5777 188.027 48.5777C187.043 48.5777 186.06 48.3807 185.174 47.9868C184.289 47.5929 183.503 47.002 182.814 46.2142C182.126 45.4264 181.634 44.4416 181.24 43.3584C180.847 42.1767 180.65 40.8965 180.65 39.4193C180.65 37.9421 180.847 36.5635 181.24 35.3817C181.634 34.2 182.224 33.2152 182.912 32.4274C183.601 31.6396 184.486 31.0487 185.47 30.6548C186.453 30.2609 187.535 30.064 188.813 30.064C190.387 30.064 191.764 30.4579 192.944 31.1472C194.124 31.8366 195.009 32.9198 195.698 34.2985L192.551 36.0711C192.256 35.3817 191.862 34.7909 191.272 34.2985C190.682 33.8061 189.895 33.6091 188.813 33.6091C187.633 33.6091 186.65 34.003 185.961 34.6924C185.273 35.3817 184.879 36.465 184.879 38.0406V40.8965C184.879 42.3736 185.273 43.4569 185.961 44.1462C186.65 44.8355 187.633 45.2295 188.813 45.2295C189.305 45.2295 189.699 45.131 190.19 45.0325C190.584 44.934 190.977 44.7371 191.272 44.5401C191.567 44.3432 191.862 44.0477 192.059 43.7523C192.256 43.4569 192.354 43.063 192.354 42.5706V41.6843H189.01V38.4345H195.993V48.3807H192.747V45.4264Z" fill="white"/>
<path d="M199.828 48.1838V30.3594H211.925V33.8061H203.664V37.4497H210.745V40.8964H203.664V44.7371H211.925V48.1838H199.828Z" fill="white"/>
<path d="M220.775 39.8132L219.103 36.268H219.005V48.2822H215.366V30.3594H219.595L224.513 38.8284L226.185 42.3736H226.283V30.3594H229.922V48.1837H225.693L220.775 39.8132Z" fill="white"/>
<path d="M244.871 48.1838L243.593 43.9492H237.593L236.315 48.1838H232.381L238.282 30.3594H243.101L248.904 48.1838H244.871ZM240.642 33.9046H240.544L238.577 40.6995H242.708L240.642 33.9046Z" fill="white"/>
<path d="M257.166 48.5776C255.592 48.5776 254.314 48.2822 253.134 47.7898C252.052 47.2974 251.068 46.5096 250.38 45.7218L252.937 43.1614C254.117 44.5401 255.592 45.2294 257.363 45.2294C258.346 45.2294 259.035 45.0325 259.526 44.6386C260.018 44.2446 260.215 43.7523 260.215 43.0629C260.215 42.5705 260.116 42.1766 259.821 41.8812C259.526 41.5858 259.035 41.2903 258.149 41.1919L256.379 40.9949C254.511 40.798 253.134 40.2071 252.249 39.3208C251.363 38.4345 250.97 37.2528 250.97 35.6771C250.97 34.8893 251.167 34.1015 251.462 33.5106C251.757 32.8213 252.249 32.2304 252.74 31.8365C253.232 31.4426 254.019 30.9502 254.806 30.7533C255.592 30.5563 256.576 30.3594 257.658 30.3594C259.035 30.3594 260.215 30.5563 261.198 31.0487C262.182 31.4426 263.067 32.132 263.854 32.9198L261.297 35.5787C260.903 35.0863 260.313 34.6924 259.723 34.3969C259.133 34.1015 258.346 33.9046 257.461 33.9046C256.576 33.9046 255.986 34.1015 255.494 34.3969C255.002 34.6924 254.904 35.0863 254.904 35.6771C254.904 36.268 255.101 36.7604 255.396 36.9573C255.691 37.2528 256.281 37.4497 257.068 37.5482L258.838 37.8436C260.707 38.1391 262.083 38.7299 262.969 39.5177C263.854 40.404 264.345 41.5858 264.345 43.1614C264.345 44.0477 264.149 44.8355 263.854 45.5249C263.559 46.2142 263.067 46.9035 262.477 47.3959C261.887 47.8883 261.198 48.2822 260.313 48.5776C259.231 48.3807 258.248 48.5776 257.166 48.5776Z" fill="white"/>
</svg>
